<svg width="350" height="38" viewBox="0 0 350 38" fill="none" xmlns="http://www.w3.org/2000/svg">
<rect x="307" width="43" height="38" rx="17" fill="black"/>
<path d="M337.073 19.7071C337.464 19.3166 337.464 18.6834 337.073 18.2929L330.709 11.9289C330.319 11.5384 329.685 11.5384 329.295 11.9289C328.904 12.3195 328.904 12.9526 329.295 13.3431L334.952 19L329.295 24.6569C328.904 25.0474 328.904 25.6805 329.295 26.0711C329.685 26.4616 330.319 26.4616 330.709 26.0711L337.073 19.7071ZM320.634 20H336.366V18H320.634V20Z" fill="white"/>
<rect width="43" height="38" rx="17" fill="black"/>
<path d="M12.9272 18.2929C12.5366 18.6834 12.5366 19.3166 12.9272 19.7071L19.2911 26.0711C19.6816 26.4616 20.3148 26.4616 20.7053 26.0711C21.0959 25.6805 21.0959 25.0474 20.7053 24.6569L15.0485 19L20.7053 13.3431C21.0959 12.9526 21.0959 12.3195 20.7053 11.9289C20.3148 11.5384 19.6816 11.5384 19.2911 11.9289L12.9272 18.2929ZM29.366 18L13.6343 18V20L29.366 20V18Z" fill="white"/>
</svg>
