<?xml version="1.0" encoding="UTF-8"?>
<svg id="Layer_1" data-name="Layer 1" xmlns="http://www.w3.org/2000/svg" width="172.78" height="193.71" viewBox="0 0 172.78 193.71">
  <defs>
    <style>
      .cls-1 {
        fill: #000000;
      }
    </style>
  </defs>
  <g>
    <path class="cls-1" d="M1.9,171.37h3.99l-.24,6.84,6.17,1.13-.28-7.97h4.03l-.6,17.27h-2.83l-.3-8.41-6.3,.91-.26,7.51H2.5l-.6-17.27Z"/>
    <path class="cls-1" d="M23.35,171.4l3.41-.53,6.9,17.74-2.55,.29-2.55-5.58-8.54,1.53-2.24,4.05h-.32l5.89-17.49Zm4.96,11.38l-3.26-7.17-3.34,6.13,6.6,1.04Z"/>
    <path class="cls-1" d="M35.56,171.37h3.54l7.38,9.17,2.29-9.39h.41l-.82,17.78h-.17l-8.98-13.22-1.92,13.22h-.35l-1.38-17.56Z"/>
    <path class="cls-1" d="M53,171.37h3.97l5.24,8.94,4.01-8.94h3.52l-.32,17.27h-2.52l-.63-12.95-4.81,11.27h-.15l-4.83-11.27-1.96,13.26h-.32l-1.19-17.58Z"/>
    <path class="cls-1" d="M77.49,171.4l3.41-.53,6.9,17.74-2.55,.29-2.55-5.58-8.54,1.53-2.24,4.05h-.32l5.89-17.49Zm4.96,11.38l-3.26-7.17-3.34,6.13,6.6,1.04Z"/>
    <path class="cls-1" d="M95.98,183.68l.15-.16c2.29,1.86,5.54,2.97,6.95,2.97s2.52-.6,2.52-2.1v-.07c0-1.93-8.74-4.69-8.74-8.13,0-.13,0-.24,.02-.35,.52-2.97,3.21-4.94,5.93-4.94,1.83,0,3.99,.6,6.21,1.66l-1.21,3.61c-2.24-2.24-3.75-3.28-5.18-3.28-1.55,0-2.48,.73-2.48,2.55v.07c0,2.41,9.19,4.58,9.19,8.39v.18c0,3.83-3.13,5-6.26,5-2.27,0-5.26-1.77-7.12-5.4Z"/>
    <path class="cls-1" d="M115.58,173.92l-4.49,.6v-3.37l13.36,1.26v.31l-4.9,.66-.58,15.25h-2.8l-.58-14.72Z"/>
    <path class="cls-1" d="M125.44,179.96c0-5.49,4.49-9.06,7.77-9.06s7.7,3.61,7.7,9.06-4.45,9.12-7.7,9.12-7.77-3.5-7.77-9.12Zm8.63,7.22c2.01,0,3.45-2.19,3.45-5.45,0-5.96-3.06-8.9-5.18-8.9-1.99,0-3.52,2.15-3.52,5.36,0,6.31,3.11,8.99,5.24,8.99Z"/>
    <path class="cls-1" d="M156.94,188.93l-8.89-8.13,.02-.31c2.55-.53,4.45-2.5,5.01-4.23,.13-.38,.19-.73,.19-1.08,0-1.15-.75-1.97-2.37-1.97-1.04,0-2.01,.13-3.13,.42l-.32,15.01h-2.76l-.8-17.27h3.93l-.02,1.22c1.34-.78,2.78-1.22,4.08-1.22,3.6,0,4.94,2.1,4.94,4.03,0,.44-.06,.86-.19,1.24-.6,1.93-2.78,3.28-4.64,3.74l5.24,8.57-.28-.02Z"/>
    <path class="cls-1" d="M159.81,171.37h3.93l-.04,1.68,7.77-1.9v3.59l-7.79-.77-.13,5.6,6.82-1.64v3.52l-6.84-1-.13,5.34,8.5,.93v.22l-11.28,1.93-.8-17.49Z"/>
  </g>
  <g>
    <polygon class="cls-1" points="170.15 148.6 125.64 0 97.16 4.44 62.15 151.28 70.18 151.72 111.4 39.57 152.51 153.08 170.15 148.6"/>
    <polygon class="cls-1" points="19.45 15.17 51.06 8.19 13.22 153.08 3.64 145.75 19.45 15.17"/>
    <polygon class="cls-1" points="30.67 61.2 120.39 88.13 120.08 93.3 26.09 82.36 30.67 61.2"/>
  </g>
</svg>