<svg width="23" height="23" viewBox="0 0 23 23" fill="none" xmlns="http://www.w3.org/2000/svg">
<path d="M6.43083 2.28658e-05C7.4111 -0.00253142 8.37866 0.242534 9.25802 0.7161C10.1374 1.18967 10.9048 1.87892 11.5003 2.7301C12.0959 1.87876 12.8634 1.1894 13.7429 0.715824C14.6224 0.242249 15.5902 -0.00272511 16.5706 2.28658e-05C20.1023 2.28658e-05 22.9864 3.15155 22.9999 7.02509C23.0132 11.1939 21.169 13.6517 19.6868 15.6273L19.3689 16.0519C17.614 18.4172 12.1732 22.6656 11.9428 22.8453C11.8135 22.9459 11.6586 23 11.4999 23C11.3411 23 11.1863 22.9459 11.0569 22.8453C10.8265 22.6656 5.38567 18.4172 3.63078 16.0519L3.3132 15.6273C1.83126 13.6517 -0.0131741 11.1939 7.05719e-05 7.02509C0.0138912 3.15155 2.8983 2.28658e-05 6.43083 2.28658e-05Z" fill="#1F0824"/>
</svg>
